/* XPM */
static char *ac6c4dac666e497f9fe4f81907c11e86w0FOjo84kjzOoMpS[] = {
/* columns rows colors chars-per-pixel */
"64 64 148 2 ",
"   c #151E27",
".  c #181F27",
"X  c #161E2B",
"o  c #181F2E",
"O  c #171E31",
"+  c #181F31",
"@  c #152027",
"#  c #192027",
"$  c #17212C",
"%  c #19222E",
"&  c #0F243A",
"*  c #0E283F",
"=  c #162333",
"-  c #1A2333",
";  c #1B2836",
":  c #162539",
">  c #14243B",
",  c #16253B",
"<  c #15263A",
"1  c #13243C",
"2  c #12253E",
"3  c #11273F",
"4  c #16273C",
"5  c #182338",
"6  c #192438",
"7  c #1B2539",
"8  c #1B2639",
"9  c #1C263B",
"0  c #19233C",
"q  c #1A253C",
"w  c #1D273C",
"e  c #17293B",
"r  c #1B293B",
"t  c #182A3F",
"y  c #20273F",
"u  c #222B3E",
"i  c #0F2742",
"p  c #072944",
"a  c #062946",
"s  c #092844",
"d  c #0B2946",
"f  c #0B2B47",
"g  c #0C2944",
"h  c #0D2846",
"j  c #0E2947",
"k  c #0D2A47",
"l  c #062949",
"z  c #072A48",
"x  c #06294B",
"c  c #052B4B",
"v  c #052C4B",
"b  c #042A4F",
"n  c #0C2D4A",
"m  c #112741",
"M  c #142741",
"N  c #1D2642",
"B  c #102840",
"V  c #122840",
"C  c #152841",
"Z  c #162840",
"A  c #142A43",
"S  c #102845",
"D  c #112A44",
"F  c #142A44",
"G  c #132C47",
"H  c #1C2B43",
"J  c #122B49",
"K  c #112C4A",
"L  c #142C4A",
"P  c #1D2D4A",
"I  c #0E304F",
"U  c #1D3147",
"Y  c #14304F",
"T  c #1E324B",
"R  c #032950",
"E  c #072F50",
"W  c #052B56",
"Q  c #042B5A",
"!  c #1F2F51",
"~  c #0D3253",
"^  c #143253",
"/  c #1C3452",
"(  c #153659",
")  c #1D375A",
"_  c #1D3B5D",
"`  c #222643",
"'  c #212B45",
"]  c #232D4C",
"[  c #282B4B",
"{  c #203146",
"}  c #21324C",
"|  c #26384E",
" . c #232E51",
".. c #292E53",
"X. c #233353",
"o. c #293354",
"O. c #233954",
"+. c #283A57",
"@. c #26355A",
"#. c #2A355C",
"$. c #253B5B",
"%. c #293B5C",
"&. c #33355D",
"*. c #1F3E61",
"=. c #2A3763",
"-. c #253D62",
";. c #2B3B63",
":. c #2E3C6A",
">. c #323662",
",. c #323A65",
"<. c #313E6B",
"1. c #383E6A",
"2. c #333F70",
"3. c #24415C",
"4. c #29415E",
"5. c #274363",
"6. c #2B4263",
"7. c #2C436B",
"8. c #2E4A69",
"9. c #304164",
"0. c #32436C",
"q. c #344A6E",
"w. c #2D4B71",
"e. c #334474",
"r. c #3A4475",
"t. c #344B73",
"y. c #394976",
"u. c #36447B",
"i. c #3A467B",
"p. c #334B79",
"a. c #3C4B7C",
"s. c #365274",
"d. c #35527A",
"f. c #3B537C",
"g. c #414376",
"h. c #44477B",
"j. c #3A4E83",
"k. c #3D5482",
"l. c #3E548D",
"z. c #444D85",
"x. c #415282",
"c. c #405D81",
"v. c #41538A",
"b. c #51538B",
"n. c #475B93",
"m. c #4A5C95",
"M. c #4B5E9A",
"N. c #4A609B",
/* pixels */
"# @ $     $   o %   X X X X X X   o % - o   o o + o - o O X X O O O X o O + + + 9 5 - 5 7 6 q q 6 , , , A > m M S J n J s l R Q ",
"$ @       $ .     X   X X X X X - % % % - o . - - o y o X O O X X O O O o o + - - + 9 ; 9 ` q 6 6 5 , t , V A t A G J h n a b Q ",
"$ @ @       $ X o   X X X X O X o - - % o % o o O X . . X X X X X X O X + + + - - 6 - 8 y 6 0 q = > , t , t V V m G G h n l l Q ",
"@   $     %   $ o X o X X X X X X X % o % + + o o o X o X X X X X O O X o + + - - + - 0 - 0 0 - > , e e e A 1 1 m G J h h l l R ",
"$ @ @   $ $ $ X X X X X X X X X o % % o o % o + o o X X + o X X . + # + o o + - 8 6 + + 5 0 0 1 8 = 0 > > > 1 V m 3 G h s l l R ",
"          $ $ X X O O X X X X X o o o - % o - o o o X o O X X X . o + o - o - + + 6 0 = 6 6 5 O > 1 > > > 1 1 A m M i n h l l R ",
"@ $   $     X X X X X X X X X X o o - o % - % o o o X o O X X X X o o o o o o - O + = 0 5 6 m 1 = > > > , 1 1 1 V V m h s a b R ",
"# @   $ $       X X X X X O X X o o - o o o % + o o O O o X X X X X o o + o o y - = - = 6 6 O 0 > = = 1 > > 1 t m m i h s n v b ",
"$ $ $   $ $   o X O X X X O X X X - + - + o o + o o o O X O O o X X O O + + + o - + - 8 O m O m & = q , M M M M 1 1 g h s a v v ",
"@ $   $   $ $   X X X O X O X O X + o o o % o - + O o + O O X + X O O o + + + y - + + + 0 1 0 1 1 5 , 0 M O M M m m m h h h a v ",
"@     $     $ X X X X X X X X X o o + X % % % - - + + + O O + + O o O o + + + + 0 + 0 0 0 O O 1 O 1 1 1 O M O M m G 1 h s p v l ",
"$     X   $   % O X X X O X O O + o + o + o - % + o O O O O + + O X o O + + + + + O 8 0 0 O m m 1 1 m O 0 M 1 m 1 G G g s a l c ",
"@         X X $ X X X X X X X O + X o - . o % - + + + + + + + + o o + + + + + 8 + 0 O 0 5 > 1 O o 1 > q M 6 M 0 V * * * s s v v ",
"$ @     X     X   X X X X X O O - o X X o o - + - - + 6 + + + + o o + + + + + + = = 6 0 1 o 0 m > , , 1 M A M M 1 1 * g f f v v ",
"$ % @ $ X $   X X X X X X O X O - + o o o o - - - - + 6 + + + - o + + + + + y y 0 - + 0 1 0 O O > w A t N M A > 1 V 1 h f I a v ",
"% - # @   $   O X X X X O O X & + - % o - - + - - + y + + 6 - + O + + + + + + + 8 ] N 6 O m m 0 > 9 M M A , t A i V g V I f v v ",
"% % % @ % @ $ $ X - = - + X + = = = - - - - - - - - y 5 + + 9 o o o y - y - 9 5 + P N 0 N M N 0 8 , t H M M N A 1 A m h J n n b ",
"% % % % % @ $ $ o - - X X O X - + - ; - y - - - - - - y ` 9 u + + . y - o = 9 w 0 + N 6 0 M + 0 H r H m H M M J M S M S J l n b ",
"% % % % -   # $   - - - = - O + 8 - 6 5 7 - - 6 - - 9 6 y N 9 - y y y - 9 8 w 8 0 N N N N A Z 0 , A H P N M A M G G J J K ~ n E ",
"% ; % ; - $ $ % = - - 5 = O = - ; 6 ` w y - y 6 y y y y N N 9 - - + y 5 9 6 8 w w N P N N G Z N N N P M N P A G P G G L ^ ~ ~ b ",
"% ; - - - $ % % o = - - = O = = - 6 w y y ; y ; 6 ` y 0 9 N N w y y - y 9 8 w r w w Z P P H H t H P N L L N G P T G G Y ^ ( ~ E ",
"% - - ; ; - - X   - = - O o 8 + = - ; 9 w y ` 9 8 w ; 6 w N 0 w y y 9 y H r H ` N H N [ P P P L P N H L H L P L P L L ^ ( ( I I ",
"# % ; ; u ; r 8 - - $ $ - X + = - 6 ; 9 ' ' w y + 8 w r ` ` 0 ` N 9 y ` q ' N ' ] P P ] P T U H P P P P T P L P Y Y Y / ( Y n h ",
"% % - - ; ; r r ; = $ - = O - 5 = r 9 9 ' ` H y 8 y 8 w N ' H [ ' ' [ ] ] ] ] P P P ] P T T T P T P P P P H H T / ) _ ^ ^ K h s ",
"% % ; ; ; - 9 u ; ; - - $ - 8 = 6 8 N y [ | ] ' ' y 9 y N [  .} ] ] ] [ ] ] } P P ] P O.O.T O./ T P / T P N t / ) -.*./ Y 3 g * ",
"% ; ; ; r ; r r ; 8 8 ; = = 5 5 ` r y ' o.+.[ ` ' y 9 y ] ]  .] ] ] ] ] X.X.X.X.O.X.X.) $.O.O./ T T ]  ./ P P ) -.-./ Y A * 3 * ",
"% % ; r { H u { r r U 8 - H H r ' ' w ` [ X.' ` H ` y y ' ] [ ' ] ..]  .X.@.$.X.-.$.@.-.$.-.$.O.T T X.O.@.$.$.-.-.5.$.P 3 * 3 * ",
"; ; r | | { { } { r r U T O.' 8 u ' u 9 ' o.[ [ ` ` 9 - N ]  .] [ &.X.#.=.-.;.;.7.7.-.-.-.-.$.T } / @.O./ @.$.5._ / $.Y r > 3 & ",
"; ; r U | t U { { { U U O.} O.U { t 9 9 ` ] ' o.{ [ w + 8 ] [ o.[ #...X.;.<.t.<.e.p.p.p.7.-.$.} } } O.o.O.$.6.7./ U } G 1 > & & ",
"; ; r U r U { { r { | U } } | } X.] N H ' [ ] H ' ' ` + + ` ] [ .. ...@.<.i.j.a.j.j.v.j.t.6.$.} | H O.+.+.$.O.%.} A e r > > G G ",
"; ; ; u U U r { { { { { U } U u | +.o.] o.o.o.] | ' ` 8 0 ` .... .[  .&.<.h.z.a.a.v.N.N.k.9.;.| } } } O.4.+.+.} K 8 > : & e U T ",
"; ; ; r r U r r { } } H U U r r w o.@.=.:.;.%.o.o.&.] ` ` [ >.=. .N ..&.>.i.i.7.t.j.m.m.f.0.%.X.] N H o.+.+.| U A r < < < t * U ",
"; ; ; r r U H w U U } U U U H H r ' @.:.:.2.u.:.#.,.o.] ] &.1.&.` N ..>.g.z.b.2.a.a.v.m.r.6.:.} o.{ N +.O.} } H t e > > H | 3 T ",
"; ; ; r r r r ; r U } } U T } } H | #.=.=.2.j.2.,.<.,.o.o.h.h.&.` N [ ..>.1.h.h.y.a.x.x.%.+.%.} X.} ] } U U { r t r U H U O.t 3.",
"; ; % ; r r ; ; r U U { U U } } X.+.@.@.=.2.2.2.:.;.i.,. .i.2.>.` + N ]  ...>.:.;.y.t.<.+.+.#.} +.O.} H H r U U H } +.} 3.T U 3.",
"% ; = ; e : ; > r r { } H { [ T / X.+.=.=.:.j.2.<.<.<.1.#.,.&.[ ` y N N  .......@.=.X.$.@.#.=.%.,.+.o.T } U { | | X.3.+.3.3.T 3.",
"; = = % = = ; ; r r U U ' H P H T X.X.@.=.:.2.2.:.;...:.>.#.>.] ` N ` P !  . . .@.@. .@.%.,.q.7.q.q.%.4.q.+.3.4.U | 3.3.{ U U 3.",
"% ; = ; ; = = ; r r r U H H H } } T  .O.@.=.:.:.;.=.X.=.>.#...` ` .. .@. . . .@.X.! ]  .O.:.t.k.h.d.8.s.h.s.4.4.U | { T U U t t ",
"% = % = ; = ; ; t r r r H H t U H N ] X.X.@.=.@.=.=.$.#.#.....] `  .#.:.@. . ... . .#.X.+.0.p.k.k.d.d.d.d.8.8.4.3.3./ 3.| U t U ",
"% = % ; ; = ; ; ; ; r r r H r H H H ]  . . . . .+.@.....] ..]  . ...@.=.=. . .! [ ..+.;.-.0.t.t.d.w.s.w.8.3.8.4.3.4.T U U t t t ",
"% % $ = = @ ; ; ; = ; r H H r r H H ' ] ] ] } X.}  . .[ ] ] ] X.=.@...@.=.!  . . .@.=.=.:.e.7.7.7.5.6.6.3.3.O.O.} | U U U : t U ",
"% $ $ = % ; = ; ; : = 8 8 = 8 r r ' H ' N H P ] ` [ ] H H ] N X.@.@. .! X.@. .!  .X.@.X.-.-.:.-.7.5.$.3.3.3.T O.T U e U r : ; G ",
"% @ ; $ @ ; = = ; ; ; 5 ; = 8 8 r r H r ` H H N 9 H ` N H ' [ ] !  .! !  .@. .P ! X.@.) -.@.-.-.5.$.$.$.| 3.T O.U r H U e ; e e ",
"% @ @ = ; @ % ; > - = 8 8 ; 8 r y ; y 9 ; r ` 9 9 H H ` w N Z [ P ! ! ! P !  .P  .@.! @.@.-.%.$.$.O.+.O.O.| / T L r r r e e ; e ",
"@ $ $ $ = @ ; = - - = - 8 6 - 9 ; y y 9 r w w H t w t 8 y H w y N N H N N P P  .! X.X.@.@.$.O.@.O./ O.O.T | T T t t e e e ; e ; ",
"@ $ $ $ @ % $ $ - - - 6 0 - - ; y - - y r w 9 9 8 8 y 9 9 q w y N N H H H H N P P X.P X.X./ / O./ T T T T U U t t t e ; = = = e ",
"$ @ $ $ @ = $ $ - - O 8 8 + + y u - - 8 9 9 9 w 9 6 w w 9 - 9 9 A N 9 w H r 0 r H ] T X.T } } T } U K H U U U t u t e ; ; $ = ; ",
"@ @ $ @ @ @ @ ; ' = + + - 0 - - - y 8 - ; 9 9 w 9 9 9 - 6 8 6 8 N 9 9 6 w 6 r q A ' H } P T } T } T H H t u r U r ; ; = $ = = = ",
"$   # X X   - % u - + - + y + + # y + % - y % u - y % y = y - 6 7 ; 5 - > ; 9 t r H H H H U } { H H H r r r r t ; > = = % = ; ; ",
"@   o   .   o % - - + - y - y - y o y + - % u y y - - o - y - - - 5 - = - 5 5 ; r r r r r { } { U H U r t r r r ; w % = = = ; $ ",
"$       . o % % o + - + % o o o + y + # - - - y - - y o - 8 8 - = = - 9 9 5 6 6 r r r H { { { { U U r r w r ; > e ; % = @ = $ ; ",
"      o % o o % % - y o - y + + + y + y + - - - y - - % y - o = y - - - - ; ; 8 - ; r r r r r U r r e r > ; 8 ; : ; ; $ = = $ e ",
"    X . . o # % o o - - + y o o - + % + - - - % o % - - - + - - - - + = - ; ; ; ; 8 8 t r t U r r r r t r r ; : e ; ; @ = @ ; ; ",
"    X X X o % % % . y - - + o y - % - - - + - - - - - % - - - - - - - = ; - - - ; 5 ; w r r r r r r ; e r ; ; ; = = = ; = ; @ @ ",
"#     . . . % # % y + - % o - o y % + - + - + % - - - - + + - % % o ; - = = - ; - ; r r ; ; r r r e r e ; ; ; : = ; @ @ ; = = ; ",
"    . . . % % % % o % # y y - - - - o - - + + - o % + + - - X - - - - - = = ; - 8 ; r e e r ; r r r r r > ; = ; ; = ; ; @ @ ; @ ",
"# o o # # # # # % % - u # % % - - % - + % - + # - ; - - - o % - % % % - - - - - ; ; % ; ; r r r e ; e e ; ; ; ; ; @ ; $ @ $ @ ; ",
". # # # u # # u % - % # % u - - - % y # o + + % % - o $ O - % = % - X - - - ; - ; ; ; ; r ; ; r r ; ; ; ; ; % $ ; ; $ ; $ $ @ ; ",
"o . # # # # # # - u % u # u % - - u - - - - # + o o X - - X + - X + % % % ; % - - % ; ; ; r r ; r ; e ; ; ; ; ; @ ; $ @ @ @ ; @ ",
". . # # # # u # % % % % % - - % % - o % % % + + o % % o % o X - % X % ; ; % ; % ; % ; ; r r r ; r ; ; ; ; ; ; ; ; @ ; $ ; @ ; # ",
". . # # # u # # u % # u u % y % % % % - % o % o % . . o o o X % X % . - % - - - ; % ; u ; r r r r ; ; r ; ; @ ; ; # ; ; @ @ ; @ ",
". . o # # # # u # % # u u # # u - - - % % % o o o o o . . % o   X % % % - % % - - - ; ; ; r ; r ; ; ; ; ; ; ; @ ; ; # # ; # @ ; ",
"# # # % u # # # % u % % u - % - % % % % % y % o o % % o o X X X   + % % - % ; % % - - u ; ; ; ; ; ; ; ; ; ; ; ; ; @ # ; ; # @ ; ",
"# # % % # # u u % # u # # - # u . y % % o . % % # % % o o X X X X X % ; % % % % - - - ; ; ; ; ; ; - ; - ; ; # ; @ ; ; # # @ ; # "
};
