/* XPM */
static char *_ec4a59807144c5ce1460523c857154aDqoSuBfy0azW1RF4[] = {
/* columns rows colors chars-per-pixel */
"64 64 80 1 ",
"  c #0E0E1F",
". c #100F1E",
"X c #0F101F",
"o c #11111E",
"O c #0E0E21",
"+ c #100F21",
"@ c #0F1021",
"# c #121223",
"$ c #171825",
"% c #161629",
"& c #1A1A2C",
"* c #1E1E30",
"= c #201F30",
"- c #1F202F",
"; c #24242D",
": c #232334",
"> c #282737",
", c #292935",
"< c #262639",
"1 c #27283B",
"2 c #302F3E",
"3 c #31313E",
"4 c #2F2F41",
"5 c #2F3041",
"6 c #343444",
"7 c #373848",
"8 c #3C3D4B",
"9 c #3C3D50",
"0 c #44444F",
"q c #434452",
"w c #4C4C59",
"e c #50525E",
"r c #4D4E61",
"t c #545462",
"y c #575865",
"u c #585865",
"i c #5C5C69",
"p c #5D5E73",
"a c #656574",
"s c #666972",
"d c #696C75",
"f c #6C6D7D",
"g c #6E7079",
"h c #73747D",
"j c #6D6D82",
"k c #757880",
"l c #787B82",
"z c #858591",
"x c #818296",
"c c #8A8B95",
"v c #8A8C98",
"b c #91919A",
"n c #9696A3",
"m c #9D9EB5",
"M c #A0A0A9",
"N c #A7A8AF",
"B c #A2A3B1",
"V c #AFB0B9",
"C c #B5B5C0",
"Z c #BBBDC2",
"A c #BBBCD2",
"S c #C1C2C8",
"D c #C4C7CA",
"F c #CACDD1",
"G c #D0D3D6",
"H c #DADEDF",
"J c #D8D9E0",
"K c #DFDEED",
"L c #E2E3EC",
"P c #E6E8EB",
"I c #EDEEF2",
"U c #EDEDF7",
"Y c #EEEFFE",
"T c #F0F2F3",
"R c #F5F6F9",
"E c #F6F6FF",
"W c #F7F8FE",
"Q c #FAFDF9",
"! c GhostWhite",
"~ c #FBFDFC",
/* pixels */
"          O                      O            O             O   ",
"  O     O                         O          O      O           ",
"     O                                O O          O            ",
"               O            O                           O    O  ",
"   O                             OOO  OOO   O        O          ",
"O              O                 OOOOOOOOOO           O    O    ",
"       O  O                 O   O@@#@@@#### OO                O ",
"         O                     O@@@#&%&%%### #  O               ",
"  O O          OX X   XX  O  OOO@#$&&:::-&$$# X     XXXX        ",
"                XX    XX  OO OOO##$:>2662:=%#XO     XXX-        ",
"                XX  8H:X  OO  +#$&:>8wutq6<*$#OO      0m        ",
"           O     o  ,z&X  OOO ++%&>7icVNkw4:%##O    X oo        ",
"                 X   X    O    +%=2wzHRTZd8<&%#O      X         ",
" O              X         OO  O+%:6tMI~~Jlq1&$#OX      X        ",
"O                         O O ++%:2wbP~QFg81*##OO               ",
"         +-8o               OO++%&>8sNGDvt7<&#OO@               ",
"       O..K!h.                O+$&<5qidse81*$#                  ",
"        .=UEn.OO    O           #%&<478871:&$o                  ",
"        O.ix2.++     O          @#%&:<<<:*&#+#                  ",
"   O    O++O. ++ O              O##$%%&&&%##OO                  ",
" O       OOO OOO   O            O X###$%###O                    ",
"    O     OO                    OO O#OOOOOOO   o  X             ",
"     O                 O           .OOOOOOOO      XX            ",
"        O                        O        OO    X               ",
"   O    O    O        O                           <r OO         ",
"                O                      O          <r OO         ",
"                 O        O       OOOO          X     O         ",
"     O   O             O           OOO  .  ..                   ",
" O             O                 X OOOOOq6..        O           ",
"   O        O             O     X X OO j~I8.                    ",
"      O   O       O O      O O  $w:    BR~h                     ",
"                           OOO  8YaoO XqSV,             O       ",
"                OO        OOO   Xy;X   X#o .                O   ",
"  O              4f         O          X             O          ",
"                 %*           O            O            O       ",
"                                                             O  ",
" O                                           O      O           ",
"                        O                              O      O ",
"                  ..        O                              O    ",
"O                        O              O               O       ",
"                           O                    O               ",
"       O                                 O    O               O ",
"                                    O   O      O      O    O    ",
"   O                      O    O                     O          ",
" O                                O                O    O    O  ",
"@#OO O                      O                                   ",
"&A6OO                    O                          O       O   ",
"@9%                                    O   OO                   ",
"                  O       O    O          O                     ",
"XXX                                         O   O               ",
"X                  O  O                          O       %      ",
"                              O     O+ #                =mp     ",
"         O           O  O          .  oo       O    OO  3DsX    ",
"                           O      . $qwo O          OO  oo.   o ",
"             O                O    .qLIl  O         OO  o o X . ",
"                O                O..aWWV OO   O   O  O     X  X ",
"                     O  O           :BC8  O                X X  ",
"   O O      O         O             .$$.        O               ",
"             O                 O      +  O   O                  ",
"        O       O            O   O                              ",
"O     O         O                    O   O                      ",
"           O               O    O                 O             ",
"               O      O      O                 O                ",
" O     O             O              O       O                   "
};
